<svg width="83" height="84" viewBox="0 0 83 84" fill="none" xmlns="http://www.w3.org/2000/svg">
<g filter="url(#filter0_d_213_634)">
<circle cx="41.5" cy="40.5" r="39.5" fill="white"/>
</g>
<path d="M54.1007 55.7732C54.347 55.7011 59.1845 55.4484 61.5627 56.531C63.9408 57.6136 65.4165 69.4861 63.5308 71.3265C61.6446 73.1669 60.0045 73.4196 56.5608 73.2752C53.117 73.1308 34.9943 73.1669 34.9124 73.0588C34.8305 72.9504 35.2406 55.9536 35.2406 55.9536L54.1007 55.7732Z" fill="#563B48"/>
<path d="M61.0353 57.034C61.6253 57.4703 64.3216 69.7552 61.639 71.4377C58.9565 73.1201 41.2501 73.8284 38.9026 72.4116C36.5551 70.9948 34.0738 58.4214 38.7013 57.0046C43.3295 55.5878 59.359 55.7944 61.0353 57.034Z" fill="#3A2736"/>
<path d="M62.503 49.3564C63.7481 49.5314 64.4931 52.1212 64.3444 53.7911C64.1957 55.4609 63.0322 57.7394 61.7401 57.3424C60.4479 56.9453 59.0742 53.605 59.9651 51.7864C60.8561 49.9686 62.1094 49.3011 62.503 49.3564Z" fill="#563B48"/>
<path d="M62.5032 49.3564C62.5032 49.3564 62.5011 49.3564 62.4963 49.3571C62.2625 49.3709 62.0383 49.4498 61.8274 49.5812C60.778 50.2321 60.069 52.1835 60.1638 54.0345C60.2316 55.3606 60.7123 56.6347 61.7769 57.3424C48.0731 56.7067 33.8249 55.8904 33.8249 55.8904C33.8249 55.8904 32.9263 54.1431 33.277 51.5001C33.3988 50.5794 33.672 49.5501 34.188 48.4489C34.188 48.4489 61.8744 49.3011 62.5032 49.3564Z" fill="#DA5043"/>
<path d="M61.7776 57.3432C48.0738 56.7075 33.8256 55.8912 33.8256 55.8912C33.8256 55.8912 32.9271 54.1439 33.2778 51.5008L60.1645 54.036C60.2323 55.3613 60.713 56.6355 61.7776 57.3432Z" fill="#563B48"/>
<path d="M61.7776 57.3431C61.1398 57.2393 59.4354 56.3678 59.6685 53.1229C59.8539 50.5434 61.1156 49.6711 61.828 49.5812C60.7787 50.2321 60.0697 52.1835 60.1644 54.0345C60.2322 55.3613 60.713 56.6354 61.7776 57.3431Z" fill="#EFBB1E"/>
<path d="M62.2668 51.3416C61.8912 51.3333 61.2029 54.5055 62.2481 55.4428C62.7863 55.925 63.1391 51.3602 62.2668 51.3416Z" fill="#EFBB1E"/>
<path d="M56.7766 59.1917C56.7766 61.2408 56.373 63.2699 55.5889 65.163C54.8047 67.0561 53.6553 68.7763 52.2064 70.2252C50.7575 71.6742 49.0373 72.8235 47.1442 73.6077C45.251 74.3919 43.222 74.7955 41.1729 74.7955C39.1238 74.7955 37.0947 74.3919 35.2016 73.6077C33.3084 72.8235 31.5883 71.6742 30.1393 70.2252C28.6904 68.7763 27.541 67.0561 26.7569 65.163C25.9727 63.2699 25.5691 61.2408 25.5691 59.1917L41.1729 59.1917H56.7766Z" fill="url(#paint0_linear_213_634)"/>
<path d="M62.3336 46.6153C62.3336 52.2043 57.8025 56.7354 52.2135 56.7354H28.5561C22.99 56.7354 18.436 52.1814 18.436 46.6153V41.3582C18.436 31.4551 26.5386 23.3523 36.442 23.3523H44.3279C54.231 23.3523 62.3338 31.4548 62.3338 41.3582L62.3336 46.6153Z" fill="url(#paint1_linear_213_634)"/>
<path d="M55.4291 45.6569C54.8548 45.9408 54.2109 46.0896 53.5567 46.0896H27.2135C26.5593 46.0896 25.9154 45.9408 25.3411 45.6569C23.9302 44.9595 23.1341 43.5512 23.3333 42.1066L23.3479 42.0015C24.023 37.1082 28.4547 33.3461 33.888 33.0634C36.1869 32.9438 38.5994 32.882 41.1157 32.8965C43.0869 32.908 44.9923 32.9658 46.827 33.0602C52.2809 33.3413 56.7453 37.0885 57.4229 42.0004C57.4278 42.0356 57.4327 42.0711 57.4375 42.1063C57.6364 43.5512 56.84 44.9595 55.4291 45.6569Z" fill="url(#paint2_linear_213_634)"/>
<path d="M33.4421 45.0113C36.1855 45.0113 38.4095 42.7873 38.4095 40.0438C38.4095 37.3004 36.1855 35.0764 33.4421 35.0764C30.6986 35.0764 28.4746 37.3004 28.4746 40.0438C28.4746 42.7873 30.6986 45.0113 33.4421 45.0113Z" fill="url(#paint3_radial_213_634)"/>
<path d="M33.4422 43.6093C35.4113 43.6093 37.0077 42.0129 37.0077 40.0438C37.0077 38.0746 35.4113 36.4783 33.4422 36.4783C31.473 36.4783 29.8767 38.0746 29.8767 40.0438C29.8767 42.0129 31.473 43.6093 33.4422 43.6093Z" fill="#EEFDFF"/>
<path d="M33.4423 43.0385C35.0962 43.0385 36.4369 41.6978 36.4369 40.0439C36.4369 38.3901 35.0962 37.0494 33.4423 37.0494C31.7885 37.0494 30.4478 38.3901 30.4478 40.0439C30.4478 41.6978 31.7885 43.0385 33.4423 43.0385Z" fill="url(#paint4_linear_213_634)"/>
<path d="M35.3605 39.2677C35.3605 39.8804 34.864 40.377 34.2513 40.377C33.6386 40.377 33.1421 39.8802 33.1421 39.2677C33.1421 38.6553 33.6386 38.1585 34.2513 38.1585C34.864 38.1585 35.3605 38.6553 35.3605 39.2677Z" fill="#EEFDFF"/>
<path d="M32.9994 42.783C33.2439 42.783 33.4421 42.5848 33.4421 42.3403C33.4421 42.0958 33.2439 41.8976 32.9994 41.8976C32.7549 41.8976 32.5566 42.0958 32.5566 42.3403C32.5566 42.5848 32.7549 42.783 32.9994 42.783Z" fill="#EEFDFF"/>
<path d="M31.9017 41.6762C31.9017 41.7984 31.8026 41.8974 31.6804 41.8974C31.5582 41.8974 31.4592 41.7984 31.4592 41.6762C31.4592 41.554 31.5582 41.455 31.6804 41.455C31.8026 41.455 31.9017 41.5543 31.9017 41.6762Z" fill="#EEFDFF"/>
<path d="M46.8615 45.0113C49.605 45.0113 51.829 42.7873 51.829 40.0438C51.829 37.3004 49.605 35.0764 46.8615 35.0764C44.1181 35.0764 41.894 37.3004 41.894 40.0438C41.894 42.7873 44.1181 45.0113 46.8615 45.0113Z" fill="url(#paint5_radial_213_634)"/>
<path d="M46.8616 43.6093C48.8308 43.6093 50.4271 42.0129 50.4271 40.0438C50.4271 38.0746 48.8308 36.4783 46.8616 36.4783C44.8925 36.4783 43.2961 38.0746 43.2961 40.0438C43.2961 42.0129 44.8925 43.6093 46.8616 43.6093Z" fill="#EEFDFF"/>
<path d="M46.8617 43.0385C48.5156 43.0385 49.8563 41.6978 49.8563 40.0439C49.8563 38.3901 48.5156 37.0494 46.8617 37.0494C45.2079 37.0494 43.8672 38.3901 43.8672 40.0439C43.8672 41.6978 45.2079 43.0385 46.8617 43.0385Z" fill="url(#paint6_linear_213_634)"/>
<path d="M48.7802 39.2677C48.7802 39.8804 48.2835 40.377 47.671 40.377C47.0586 40.377 46.5615 39.8802 46.5615 39.2677C46.5615 38.6553 47.0583 38.1585 47.671 38.1585C48.2837 38.1585 48.7802 38.6553 48.7802 39.2677Z" fill="#EEFDFF"/>
<path d="M46.4188 42.783C46.6633 42.783 46.8615 42.5848 46.8615 42.3403C46.8615 42.0958 46.6633 41.8976 46.4188 41.8976C46.1743 41.8976 45.9761 42.0958 45.9761 42.3403C45.9761 42.5848 46.1743 42.783 46.4188 42.783Z" fill="#EEFDFF"/>
<path d="M45.3211 41.6762C45.3211 41.7984 45.2221 41.8974 45.0999 41.8974C44.9777 41.8974 44.8787 41.7984 44.8787 41.6762C44.8787 41.554 44.9777 41.455 45.0999 41.455C45.2221 41.455 45.3211 41.5543 45.3211 41.6762Z" fill="#EEFDFF"/>
<path d="M41.6336 10.9102C41.6336 11.2127 41.3883 11.4576 41.0858 11.4576C40.7833 11.4576 40.5381 11.2124 40.5381 10.9102C40.5381 10.6077 40.7833 10.3624 41.0858 10.3624C41.3883 10.3627 41.6336 10.6077 41.6336 10.9102Z" fill="white"/>
<path d="M55.8512 29.1116C55.8749 29.9501 55.1904 30.9532 54.4063 31.0387C53.6714 31.1192 53.0844 30.3682 52.4792 29.5938C51.8825 28.8306 50.5778 26.8697 51.0975 26.3151C51.7823 25.5839 55.7948 27.1333 55.8512 29.1116Z" fill="white"/>
<path d="M49.1368 25.915C49.4816 25.915 49.761 25.6356 49.761 25.2909C49.761 24.9462 49.4816 24.6667 49.1368 24.6667C48.7921 24.6667 48.5127 24.9462 48.5127 25.2909C48.5127 25.6356 48.7921 25.915 49.1368 25.915Z" fill="white"/>
<path d="M55.7622 40.7442C55.5619 40.8856 54.1656 38.041 50.4173 35.5747C49.0997 34.7076 47.7991 34.0897 47.8763 33.91C47.9547 33.7277 49.4197 34.0668 50.5924 34.6108C54.3293 36.3445 56.0003 40.5762 55.7622 40.7442Z" fill="white"/>
<path d="M45.7506 48.2214C45.7019 48.6973 45.3059 49.0639 44.8297 49.1097L38.2493 49.7441C37.7734 49.7899 37.3144 49.5063 37.1756 49.0484C37.1138 48.8449 37.0662 48.6352 37.0339 48.4194C37.025 48.3599 37.0408 48.2992 37.078 48.2514C37.1152 48.2039 37.1701 48.1739 37.2302 48.1678L45.5319 47.3671C45.5912 47.3614 45.6498 47.3803 45.6948 47.4192C45.7397 47.4581 45.7663 47.5139 45.7689 47.5732C45.7789 47.7927 45.7723 48.009 45.7506 48.2214Z" fill="#EEFDFF"/>
<path d="M45.751 48.2219C45.5406 50.2617 43.9189 51.9387 41.8003 52.1411C39.7106 52.3434 37.8233 51.0476 37.2029 49.1288C37.3686 49.5389 37.7996 49.7887 38.2491 49.7437L44.8312 49.1102C45.3068 49.0629 45.7012 48.6975 45.751 48.2219Z" fill="url(#paint7_linear_213_634)"/>
<path d="M41.4784 57.879L32.6753 57.9159C30.8484 57.9239 29.0821 58.7046 27.9385 60.1292C27.2709 60.9599 26.8951 61.8694 26.8396 62.7972C26.8842 61.8457 27.276 60.9124 27.9726 60.0633C29.1553 58.6202 30.9666 57.8369 32.8327 57.8449L41.4784 57.879Z" fill="url(#paint8_linear_213_634)"/>
<path d="M54.0533 71.2849C53.8242 71.5664 51.815 71.1697 50.4975 70.4073C49.5719 69.872 47.9251 68.3043 47.2917 66.3707C46.6083 64.2829 45.9443 60.9273 47.3278 59.28C47.4452 59.2014 47.9336 59.2005 48.4405 59.2491C48.9025 59.2932 49.3809 59.3778 49.6101 59.4819C49.7629 59.5511 49.4978 59.9964 49.4967 60.7595C49.4957 61.5226 49.5001 66.012 52.6857 67.9378C53.0254 68.2634 53.4813 69.1744 53.7796 69.9674C54.0176 70.6012 54.1555 71.1599 54.0533 71.2849Z" fill="#604B58"/>
<path d="M54.0533 71.2849C53.8242 71.5664 51.815 71.1697 50.4975 70.4073C49.5719 69.872 47.9251 68.3043 47.2917 66.3707C46.6083 64.2829 45.9443 60.9273 47.3278 59.28C47.4452 59.2014 47.9336 59.2005 48.4405 59.2491C48.0655 59.9812 47.7948 62.3555 48.4896 64.6264C49.5652 68.1422 51.5676 69.3306 53.7796 69.967C54.0176 70.6012 54.1555 71.1599 54.0533 71.2849Z" fill="#563B48"/>
<path d="M47.8111 62.1348L48.2588 62.126C48.2588 62.126 48.4526 66.2684 51.1501 68.4432C50.9121 68.6755 50.7693 68.7162 50.7693 68.7162C50.7693 68.7162 49.6521 67.9245 48.79 65.9672C48.0543 64.2956 47.8111 62.1348 47.8111 62.1348Z" fill="#3A2736"/>
<path d="M50.2792 69.6943C50.147 63.4662 49.1965 62.2345 50.5983 60.753C50.7593 60.5828 51.5814 59.7139 52.9334 59.492C54.0108 59.3153 54.9886 59.6212 55.4514 59.8535C58.2619 61.2654 57.428 67.3864 55.5765 71.2505C55.1729 72.0931 54.09 74.3532 52.77 74.2992C52.2293 74.277 51.8304 73.874 51.5508 73.5835C50.313 72.298 50.2992 70.6332 50.2792 69.6943Z" fill="url(#paint9_linear_213_634)"/>
<path d="M55.3374 65.1619C55.2988 64.4282 55.1611 63.8887 54.8858 62.8093C54.5258 61.3973 54.0743 60.709 54.3676 60.4363C54.5585 60.2588 54.9345 60.3787 55.0198 60.4059C56.3104 60.8177 56.7099 63.2391 56.6544 64.7544C56.6204 65.6822 56.394 66.7196 56.054 66.7654C56.0005 66.7725 55.8671 66.7656 55.7719 66.6812C55.3924 66.3461 55.3669 65.7197 55.3374 65.1619Z" fill="white"/>
<path d="M56.2237 67.7514C56.2237 67.8993 56.1038 68.0192 55.9559 68.0192C55.8079 68.0192 55.688 67.8993 55.688 67.7514C55.688 67.6034 55.8079 67.4835 55.9559 67.4835C56.1038 67.4835 56.2237 67.6034 56.2237 67.7514Z" fill="white"/>
<path d="M32.3018 59.6983C32.3018 59.6983 29.4789 63.8723 29.1293 65.7856C28.7798 67.6986 28.7296 68.3558 28.7296 68.3558C28.7296 68.3558 28.1252 67.6613 27.8071 66.7826C27.7421 66.6043 27.6894 66.4188 27.6555 66.23C27.4555 65.1095 27.5305 64.0463 27.9799 62.8869C28.2753 62.1259 30.474 58.9617 31.0026 58.9447C31.2903 58.9355 31.6241 59.0241 31.8828 59.1594C32.1625 59.3061 32.3535 59.5074 32.3018 59.6983Z" fill="#604B58"/>
<path d="M31.8828 59.1594C31.0679 59.9101 28.4579 62.6011 27.8071 66.7826C27.7421 66.6043 27.6894 66.4188 27.6555 66.23C27.4555 65.1095 27.5305 64.0463 27.9799 62.8869C28.2753 62.1259 30.474 58.9617 31.0026 58.9447C31.2906 58.9355 31.6244 59.0241 31.8828 59.1594Z" fill="#563B48"/>
<path d="M30.2031 60.9158L30.4279 61.0511C30.4279 61.0511 28.8043 63.6405 28.5048 64.6648C28.105 64.549 28.105 64.549 28.105 64.549C28.105 64.549 29.1542 61.9401 30.2031 60.9158Z" fill="#3A2736"/>
<path d="M20.7486 56.4996C27.3355 58.3039 28.8918 57.7988 30.0657 59.5645C30.2004 59.7672 30.8887 60.8031 30.7511 62.1327C30.6412 63.1921 30.0511 64.0097 29.6799 64.3692C27.4234 66.5536 21.2142 63.8812 17.6582 60.9585C16.8829 60.3212 14.8027 58.6119 15.2217 57.3976C15.3934 56.9002 15.9265 56.653 16.3091 56.4819C18.0007 55.7252 19.7553 56.2274 20.7486 56.4996Z" fill="url(#paint10_linear_213_634)"/>
<path d="M36.1888 59.4568C33.8167 60.7053 32.6502 62.2419 32.88 63.7587C32.9444 64.184 33.121 64.6061 33.4029 65.0192C33.4364 65.0682 33.6433 65.0475 33.6098 64.9984C32.6153 63.5406 33.0074 61.9706 34.6752 60.5979C35.1446 60.2118 35.7146 59.8435 36.374 59.4964C36.4532 59.4549 36.2672 59.4156 36.1888 59.4568Z" fill="#F7FFFF"/>
<path d="M47.4234 59.479C47.8639 61.4385 46.3494 63.4286 43.2332 64.9881C43.1491 65.0302 43.3354 65.0713 43.4187 65.0297C45.8486 63.8136 47.3218 62.3306 47.6484 60.8025C47.7425 60.3619 47.7371 59.9192 47.6381 59.4788C47.6263 59.4265 47.4114 59.4259 47.4234 59.479Z" fill="#F7FFFF"/>
<path d="M43.137 63.1712L44.0808 68.5688C44.0937 68.6429 44.0442 68.7139 43.9698 68.7271L35.4606 70.2149C35.3862 70.2281 35.3155 70.1783 35.3024 70.1039L34.3586 64.7063C34.3454 64.6319 34.3952 64.5612 34.4696 64.548L35.5213 64.364C35.7125 64.3305 35.8404 64.1485 35.8069 63.9573C35.7574 63.6735 35.9471 63.4033 36.231 63.3535L39.5919 62.7657C39.876 62.7159 40.1465 62.9059 40.196 63.1898C40.2295 63.381 40.4115 63.5089 40.6026 63.4754L42.9788 63.0599C43.0535 63.047 43.1241 63.0968 43.137 63.1712Z" fill="black"/>
<path d="M44.2639 68.6753L36.1253 70.0984C35.9487 70.1293 35.7804 70.0111 35.7495 69.8346L34.8704 64.8076C34.8395 64.631 34.9577 64.4627 35.1342 64.4318L43.2728 63.0087C43.4494 62.9778 43.6177 63.096 43.6486 63.2725L44.5277 68.2995C44.5586 68.4764 44.4404 68.6446 44.2639 68.6753Z" fill="black"/>
<path d="M42.0699 62.9742L40.781 63.1996L40.8225 63.437L42.1114 63.2116L42.0699 62.9742Z" fill="#F7FFFF"/>
<path d="M42.2622 63.3243L43.206 68.7219C43.2188 68.796 43.1693 68.867 43.0949 68.8802L34.586 70.368C34.5116 70.3809 34.4409 70.3314 34.4278 70.257L33.484 64.8594C33.4711 64.785 33.5206 64.7143 33.595 64.7011L34.6467 64.5171C34.8379 64.4836 34.9658 64.3016 34.9323 64.1105C34.8828 63.8266 35.0725 63.5561 35.3564 63.5066L38.7173 62.9188C39.0015 62.869 39.2719 63.059 39.3214 63.3429C39.3549 63.5341 39.5369 63.662 39.7281 63.6285L42.1042 63.213C42.1786 63.2001 42.2493 63.2499 42.2622 63.3243Z" fill="#9ACFFF"/>
<path d="M37.7867 63.7873L35.9975 64.1001C35.9798 64.1033 35.9629 64.0912 35.9598 64.0735L35.918 63.834C35.9148 63.8162 35.9268 63.7994 35.9446 63.7962L37.7338 63.4834C37.7515 63.4803 37.7684 63.4923 37.7715 63.51L37.8133 63.7496C37.8165 63.7673 37.8045 63.7842 37.7867 63.7873Z" fill="#F7FFFF"/>
<path d="M41.4604 64.5483L40.0956 64.7869C39.9605 64.8107 39.832 64.7203 39.8085 64.5852L39.7877 64.4661C39.7642 64.3311 39.8543 64.2026 39.9894 64.1788L41.3542 63.9401C41.4893 63.9167 41.6177 64.0068 41.6412 64.1419L41.6621 64.261C41.6856 64.396 41.5954 64.5245 41.4604 64.5483Z" fill="#BF3652"/>
<path d="M35.2278 69.7028L35.1088 69.7236C34.9737 69.7471 34.8452 69.657 34.8217 69.5219L34.8008 69.4028C34.7774 69.2678 34.8675 69.1393 35.0026 69.1158L35.1216 69.0949C35.2567 69.0712 35.3852 69.1616 35.4087 69.2967L35.4296 69.4157C35.4533 69.5505 35.3629 69.6793 35.2278 69.7028Z" fill="#BF3652"/>
<path d="M42.5681 65.0644L33.7893 66.599L34.0824 68.2758L42.8612 66.7412L42.5681 65.0644Z" fill="#BF3652"/>
<path d="M39.6068 65.5041C40.2839 66.4276 40.0841 67.7251 39.1606 68.4022C38.2371 69.0793 36.9396 68.8796 36.2625 67.9561C35.5854 67.0326 35.7852 65.735 36.7087 65.058C37.6322 64.3809 38.9297 64.5806 39.6068 65.5041Z" fill="black"/>
<path d="M37.6315 64.6852L36.8872 64.8153L37.6003 68.8948L38.3446 68.7647L37.6315 64.6852Z" fill="black"/>
<path d="M39.0023 65.6097C39.6794 66.5332 39.4796 67.8307 38.5561 68.5078C37.6326 69.1849 36.3351 68.9851 35.658 68.0616C34.9809 67.1381 35.1807 65.8406 36.1042 65.1635C37.0277 64.4864 38.3252 64.6862 39.0023 65.6097Z" fill="black"/>
<path d="M38.2146 68.042C37.5495 68.5296 36.6117 68.3851 36.1241 67.72C35.6364 67.055 35.781 66.1172 36.446 65.6295C37.1111 65.1419 38.0489 65.2864 38.5366 65.9515C39.0242 66.6165 38.8797 67.5543 38.2146 68.042Z" fill="#F7FFFF"/>
<path d="M58.5611 28.6227C34.2583 27.0498 23.213 24.8342 23.213 24.8342C23.213 24.8342 24.4739 21.0723 26.3272 16.9688C28.0326 13.1979 30.2412 9.13982 32.4366 7.46274C32.9206 7.08952 33.4058 6.8345 33.8845 6.72568C38.8761 5.58664 40.7106 11.005 44.117 11.1913C47.5236 11.3743 51.6403 7.71035 54.6953 9.08482C56.1934 9.76098 57.5509 12.9787 58.3498 16.8178L58.3511 16.8213C58.676 18.3874 58.909 20.0566 59.0197 21.698C59.1915 24.2356 59.0742 26.7051 58.5611 28.6227Z" fill="#ADD0F4"/>
<path d="M58.5609 28.6227C34.2581 27.0498 23.2128 24.8342 23.2128 24.8342C23.2128 24.8342 24.0704 22.2743 25.4123 19.0747C25.6976 18.3968 26.0027 17.687 26.3271 16.9671C29.6302 16.1437 35.6691 15.1207 42.9423 16.0947C50.9907 17.1722 56.561 20.1442 59.0195 21.6979C59.074 22.4991 59.099 23.2909 59.0921 24.063C59.0782 25.7387 58.9117 27.3096 58.5609 28.6227Z" fill="#ADD0F4"/>
<path d="M58.5609 28.6228C34.2582 27.0498 23.2128 24.8342 23.2128 24.8342C23.2128 24.8342 24.0704 22.2744 25.4124 19.0748C28.5922 18.797 35.1451 18.3432 41.6804 18.9304C47.8257 19.4826 55.0825 22.3109 59.0921 24.0631C59.0782 25.7388 58.9117 27.3097 58.5609 28.6228Z" fill="#BF3652"/>
<path d="M68.713 29.2296C68.713 29.2296 68.3512 29.3135 66.2539 32.1517C65.7356 32.8508 65.1141 33.7211 64.3628 34.7975C43.6064 27.0648 18.1974 28.2656 18.1974 28.2656L17.193 25.756L15.8774 22.4661C15.8774 22.4661 26.6052 20.4051 40.4108 21.8295C50.1296 22.8293 68.713 29.2296 68.713 29.2296Z" fill="#ADD0F4"/>
<path d="M58.349 16.8194C57.3335 14.7155 55.5548 11.605 53.7774 11.2951C51.07 10.8224 48.7331 13.8668 44.2824 13.9258C39.8316 13.9848 36.939 11.4793 36.9347 11.0201C37.1787 10.8581 40.4034 12.2023 41.8986 11.8777C39.6332 10.1845 36.6217 6.54312 32.4344 7.46256C32.9184 7.08933 33.4035 6.83432 33.8823 6.7255C38.8738 5.58645 40.7084 11.0049 44.1147 11.1911C47.5214 11.3741 51.6381 7.71017 54.6931 9.08464C56.1928 9.76095 57.5502 12.9804 58.349 16.8194Z" fill="#BF3652"/>
<path d="M66.254 32.1517C65.7357 32.8508 65.1143 33.7211 64.363 34.7975C43.6065 27.0648 18.1975 28.2656 18.1975 28.2656L17.1931 25.756C21.5269 25.253 30.3856 24.5036 39.7877 25.3484C51.312 26.3822 61.923 30.3521 66.254 32.1517Z" fill="#BF3652"/>
<defs>
<filter id="filter0_d_213_634" x="0.244444" y="0.561111" width="82.5111" height="82.5111" filterUnits="userSpaceOnUse" color-interpolation-filters="sRGB">
<feFlood flood-opacity="0" result="BackgroundImageFix"/>
<feColorMatrix in="SourceAlpha" type="matrix" values="0 0 0 0 0 0 0 0 0 0 0 0 0 0 0 0 0 0 127 0" result="hardAlpha"/>
<feOffset dy="1.31667"/>
<feGaussianBlur stdDeviation="0.877778"/>
<feComposite in2="hardAlpha" operator="out"/>
<feColorMatrix type="matrix" values="0 0 0 0 0 0 0 0 0 0 0 0 0 0 0 0 0 0 0.25 0"/>
<feBlend mode="normal" in2="BackgroundImageFix" result="effect1_dropShadow_213_634"/>
<feBlend mode="normal" in="SourceGraphic" in2="effect1_dropShadow_213_634" result="shape"/>
</filter>
<linearGradient id="paint0_linear_213_634" x1="41.1729" y1="43.5879" x2="41.1729" y2="74.7955" gradientUnits="userSpaceOnUse">
<stop stop-color="#EC8A98"/>
<stop offset="1" stop-color="#BF3652"/>
</linearGradient>
<linearGradient id="paint1_linear_213_634" x1="25.6444" y1="57.1093" x2="55.2203" y2="27.5334" gradientUnits="userSpaceOnUse">
<stop offset="0.0397" stop-color="#EC8A98"/>
<stop offset="1" stop-color="#BF3652"/>
</linearGradient>
<linearGradient id="paint2_linear_213_634" x1="40.3072" y1="46.0469" x2="40.5701" y2="34.2183" gradientUnits="userSpaceOnUse">
<stop stop-color="#030D14"/>
<stop offset="1" stop-color="#0B2F45"/>
</linearGradient>
<radialGradient id="paint3_radial_213_634" cx="0" cy="0" r="1" gradientUnits="userSpaceOnUse" gradientTransform="translate(33.442 40.0438) scale(4.91606 4.91606)">
<stop offset="0.1296" stop-color="#3280FC"/>
<stop offset="1"/>
</radialGradient>
<linearGradient id="paint4_linear_213_634" x1="30.4475" y1="40.0439" x2="36.4369" y2="40.0439" gradientUnits="userSpaceOnUse">
<stop stop-color="#030D14"/>
<stop offset="1" stop-color="#0B2F45"/>
</linearGradient>
<radialGradient id="paint5_radial_213_634" cx="0" cy="0" r="1" gradientUnits="userSpaceOnUse" gradientTransform="translate(46.8614 40.0438) scale(4.91606)">
<stop offset="0.1296" stop-color="#3280FC"/>
<stop offset="1"/>
</radialGradient>
<linearGradient id="paint6_linear_213_634" x1="43.867" y1="40.0439" x2="49.8564" y2="40.0439" gradientUnits="userSpaceOnUse">
<stop stop-color="#030D14"/>
<stop offset="1" stop-color="#0B2F45"/>
</linearGradient>
<linearGradient id="paint7_linear_213_634" x1="40.2053" y1="50.6413" x2="48.7686" y2="42.078" gradientUnits="userSpaceOnUse">
<stop offset="0.0714" stop-color="#EC8A98"/>
<stop offset="1" stop-color="#BF3652"/>
</linearGradient>
<linearGradient id="paint8_linear_213_634" x1="30.9156" y1="63.4189" x2="44.5595" y2="47.4864" gradientUnits="userSpaceOnUse">
<stop offset="0.0397" stop-color="#EC8A98"/>
<stop offset="1" stop-color="#BF3652"/>
</linearGradient>
<linearGradient id="paint9_linear_213_634" x1="60.569" y1="71.357" x2="44.6079" y2="58.1921" gradientUnits="userSpaceOnUse">
<stop offset="0.0397" stop-color="#EC8A98"/>
<stop offset="1" stop-color="#BF3652"/>
</linearGradient>
<linearGradient id="paint10_linear_213_634" x1="24.4974" y1="60.651" x2="50.0368" y2="80.4999" gradientUnits="userSpaceOnUse">
<stop offset="0.0397" stop-color="#EC8A98"/>
<stop offset="1" stop-color="#BF3652"/>
</linearGradient>
</defs>
</svg>
