<svg width="104" height="119" viewBox="0 0 104 119" fill="none" xmlns="http://www.w3.org/2000/svg">
<path d="M-7.31511 44.1146C-7.31511 44.1146 -39.804 47.8076 -26.7283 63.9565C-13.653 80.1056 27.2067 93.8194 9.35774 105.667C-8.49146 117.513 -18.1425 114.115 -18.1425 114.115" stroke="black" stroke-width="1.05131" stroke-miterlimit="10" stroke-dasharray="6.31 6.31"/>
<path d="M80.503 47.2298C80.503 47.2298 94.5352 44.7622 93.6405 41.2953C92.7455 37.8288 79.7305 42.0393 79.7305 42.0393C79.7305 42.0393 66.3895 31.3308 64.8314 32.3205C63.2736 33.3104 72.1936 44.8663 72.1936 44.8663L64.148 46.8218L58.1933 43.7295L62.5232 49.9057L61.7734 57.5962L65.1261 50.8445L72.9589 48.7314C72.9589 48.7314 72.1373 62.3062 73.8057 62.058C75.4734 61.8098 80.503 47.2298 80.503 47.2298Z" fill="#ADD0F4"/>
<path d="M21.3667 43.5745C21.3667 43.5745 44.46 43.2184 51.5803 46.9987" stroke="black" stroke-width="1.05131" stroke-miterlimit="10" stroke-dasharray="6.31 6.31"/>
</svg>
