<svg width="30" height="30" viewBox="0 0 30 30" fill="none" xmlns="http://www.w3.org/2000/svg">
<path d="M29.125 2.3125L11.875 4.33937V6.625H29.125V8.0625H11.875V15.25H29.125C29.125 17.8519 28.3056 20.2238 26.71 22.3656C25.1144 24.5075 23.0444 26.0744 20.5 27.1094V29.625H9V27.1094C6.47 26.0744 4.38562 24.4931 2.79 22.3656C1.19438 20.2381 0.375 17.8519 0.375 15.25H4.6875V3.75L29.125 0.875V2.3125ZM6.125 5.015V6.625H7.5625V4.87125L6.125 5.015ZM6.125 8.0625V15.25H7.5625V8.0625H6.125ZM10.4375 15.25V8.0625H9V15.25H10.4375ZM10.4375 6.625V4.54063L9 4.67V6.625H10.4375Z" fill="#131313"/>
</svg>
