<svg width="135" height="199" viewBox="0 0 135 199" fill="none" xmlns="http://www.w3.org/2000/svg">
<path d="M40.5552 81.4644H42.897V116.374H40.5552V81.4644Z" fill="#DBDBDB"/>
<path d="M17.3001 81.4644H19.6418V116.374H17.3001V81.4644Z" fill="#DBDBDB"/>
<path d="M39.6342 78.8336H43.6917V84.2155H39.6342V78.8336Z" fill="#263238"/>
<path d="M16.4391 78.8336H20.4966V84.2155H16.4391V78.8336Z" fill="#263238"/>
<path d="M16.4391 77.4671V81.5246H22.2544L23.3982 82.3373H36.7386L37.8824 81.5246H43.6917V77.4671H37.8824L36.7386 78.2798H23.3982L22.2544 77.4671H16.4391Z" fill="#263238"/>
<path d="M4.47153 116.368H55.7258V189.114H4.47153V116.368Z" fill="#EC8A98"/>
<path opacity="0.1" d="M4.47153 116.368H55.7258V189.114H4.47153V116.368Z" fill="black"/>
<path d="M10.1001 121.997H50.103V183.485H10.1001V121.997Z" fill="#EC8A98"/>
<g opacity="0.1">
<path d="M45.7205 124.616C45.6121 129.305 45.5579 133.995 45.5158 138.678L45.4556 152.747L45.5158 166.81L45.588 173.841L45.7205 180.873L45.8469 173.841L45.9252 166.84L45.9854 152.777L45.9191 138.709C45.877 133.995 45.8288 129.305 45.7205 124.616Z" fill="black"/>
<path d="M40.5431 124.616C40.4348 129.305 40.3806 133.995 40.3385 138.678L40.2783 152.747L40.3385 166.81L40.4107 173.841L40.5431 180.873L40.6696 173.841L40.7418 166.84L40.802 152.777L40.7418 138.709C40.6997 133.995 40.6515 129.305 40.5431 124.616Z" fill="black"/>
<path d="M35.3842 124.616C35.2698 129.305 35.2217 133.995 35.1795 138.678L35.1193 152.747L35.1795 166.81L35.2518 173.841L35.3842 180.873L35.5106 173.841L35.5648 166.84L35.625 152.777L35.5648 138.709C35.5227 133.995 35.4745 129.305 35.3842 124.616Z" fill="black"/>
<path d="M30.1826 124.616C30.0743 129.305 30.0261 133.995 29.984 138.678L29.9238 152.747L29.9659 166.84L30.0382 173.871L30.1646 180.903L30.297 173.871L30.3873 166.84L30.4475 152.777L30.3873 138.709C30.3452 133.995 30.297 129.305 30.1826 124.616Z" fill="black"/>
<path d="M25.0056 124.616C24.8973 129.305 24.8491 133.995 24.807 138.678L24.7468 152.747L24.807 166.81L24.8792 173.841L25.0056 180.873L25.1501 173.841L25.2103 166.84L25.2705 152.777L25.2103 138.709C25.1501 133.995 25.114 129.305 25.0056 124.616Z" fill="black"/>
<path d="M19.8284 124.616C19.72 129.305 19.6718 133.995 19.6297 138.678L19.5635 152.747L19.6237 166.81L19.702 173.841L19.8284 180.873L19.9608 173.841L20.0331 166.84L20.0933 152.777L20.0331 138.709C19.9909 133.995 19.9367 129.305 19.8284 124.616Z" fill="black"/>
<path d="M14.6514 124.616C14.543 129.305 14.4949 133.995 14.4467 138.678L14.3865 152.747L14.4467 166.81L14.525 173.841L14.6514 180.873L14.7838 173.841L14.8561 166.84L14.9163 152.777L14.8561 138.709C14.8139 133.995 14.7597 129.305 14.6514 124.616Z" fill="black"/>
</g>
<path d="M55.7258 183.515H46.0697L42.2109 189.12H55.7258V183.515Z" fill="#263238"/>
<path d="M4.47167 183.515H14.1278L17.9866 189.12H4.47167V183.515Z" fill="#263238"/>
<path d="M55.7258 133.206L58.4167 132.683V126.644L55.7258 126.121V133.206Z" fill="#263238"/>
<path d="M55.7258 179.374L58.4167 178.844V172.812L55.7258 172.282V179.374Z" fill="#263238"/>
<path d="M0.022665 152.747C0.022665 163.8 2.71361 170.59 2.71361 170.59H4.47144V160.356H2.24405V145.168H4.47144V134.934H2.71361C2.71361 134.934 0.022665 141.688 0.022665 152.747Z" fill="#263238"/>
<path d="M1.62399 166.924C1.91122 168.168 2.27512 169.392 2.71361 170.59H4.47144V166.924H1.62399Z" fill="#DBDBDB"/>
<path d="M1.62399 138.546H4.47144V134.88H2.71361C2.27512 136.078 1.91122 137.303 1.62399 138.546Z" fill="#DBDBDB"/>
<path d="M29.8338 112.449C18.775 112.449 16.2105 115.14 16.2105 115.14V116.344H22.7422V114.647H36.9133V116.344H43.9868V115.14C43.9868 115.14 40.8925 112.449 29.8338 112.449Z" fill="#263238"/>
<path d="M49.6457 193.611H52.0356L53.6189 189.12H48.4598L49.9347 191.365L49.6457 193.611Z" fill="#263238"/>
<path d="M47.4241 194.971C47.4241 195.623 47.6173 196.259 47.9791 196.801C48.3409 197.342 48.8552 197.765 49.4569 198.014C50.0586 198.263 50.7207 198.328 51.3595 198.201C51.9983 198.074 52.585 197.76 53.0455 197.3C53.506 196.839 53.8197 196.253 53.9467 195.614C54.0738 194.975 54.0086 194.313 53.7593 193.711C53.5101 193.11 53.088 192.595 52.5465 192.233C52.005 191.872 51.3683 191.679 50.7171 191.679C49.8437 191.679 49.0061 192.025 48.3886 192.643C47.7711 193.261 47.4241 194.098 47.4241 194.971Z" fill="#37474F"/>
<path d="M48.9232 194.971C48.9232 195.329 49.0291 195.678 49.2275 195.975C49.426 196.272 49.708 196.503 50.038 196.64C50.368 196.777 50.7312 196.812 51.0815 196.743C51.4318 196.673 51.7536 196.501 52.0062 196.248C52.2588 195.996 52.4308 195.674 52.5005 195.324C52.5701 194.973 52.5344 194.61 52.3977 194.28C52.261 193.95 52.0295 193.668 51.7325 193.47C51.4355 193.271 51.0864 193.165 50.7292 193.165C50.2502 193.165 49.7908 193.356 49.4521 193.694C49.1134 194.033 48.9232 194.492 48.9232 194.971Z" fill="#DBDBDB"/>
<path d="M50.7532 194.351C50.7133 194.351 50.681 194.141 50.681 193.882C50.681 193.623 50.7133 193.412 50.7532 193.412C50.7931 193.412 50.8254 193.623 50.8254 193.882C50.8254 194.141 50.7931 194.351 50.7532 194.351Z" fill="#263238"/>
<path d="M51.4695 194.177C51.2829 194.357 51.1564 194.526 51.1865 194.556C51.2166 194.586 51.3792 194.454 51.5658 194.273C51.7524 194.093 51.8728 193.918 51.8487 193.894C51.8247 193.87 51.638 193.99 51.4695 194.177Z" fill="#263238"/>
<path d="M51.8127 194.935C51.5538 194.935 51.3431 194.965 51.3431 195.002C51.3431 195.038 51.5538 195.074 51.8127 195.074C52.0715 195.074 52.2822 195.074 52.2822 195.002C52.2822 194.929 52.0715 194.935 51.8127 194.935Z" fill="#263238"/>
<path d="M51.518 195.736C51.3374 195.549 51.1628 195.423 51.1387 195.453C51.1146 195.483 51.235 195.652 51.4217 195.832C51.6083 196.013 51.7708 196.139 51.8009 196.115C51.831 196.091 51.6986 195.899 51.518 195.736Z" fill="#263238"/>
<path d="M50.7593 196.061C50.7593 195.802 50.7292 195.592 50.687 195.592C50.6449 195.592 50.6208 195.802 50.6208 196.061C50.6208 196.32 50.6509 196.531 50.687 196.531C50.7232 196.531 50.7593 196.338 50.7593 196.061Z" fill="#263238"/>
<path d="M49.9766 195.766C50.1572 195.586 50.2836 195.417 50.2595 195.387C50.2354 195.357 50.0608 195.483 49.8802 195.67C49.6996 195.856 49.5672 196.019 49.5973 196.049C49.6274 196.079 49.796 195.953 49.9766 195.766Z" fill="#263238"/>
<path d="M49.6335 195.008C49.8923 195.008 50.103 194.978 50.103 194.935C50.103 194.893 49.8923 194.869 49.6335 194.869C49.3746 194.869 49.1639 194.899 49.1639 194.935C49.1639 194.971 49.3746 195.008 49.6335 195.008Z" fill="#263238"/>
<path d="M49.9285 194.225C50.1091 194.412 50.2776 194.532 50.3077 194.508C50.3378 194.484 50.2054 194.309 50.0248 194.129C49.8442 193.948 49.6696 193.822 49.6455 193.846C49.6215 193.87 49.7419 194.044 49.9285 194.225Z" fill="#263238"/>
<path d="M10.5518 193.611H8.16183L6.57857 189.12H11.7317L10.2568 191.365L10.5518 193.611Z" fill="#263238"/>
<path d="M9.47415 198.264C7.65551 198.264 6.18121 196.79 6.18121 194.971C6.18121 193.153 7.65551 191.679 9.47415 191.679C11.2928 191.679 12.7671 193.153 12.7671 194.971C12.7671 196.79 11.2928 198.264 9.47415 198.264Z" fill="#37474F"/>
<path d="M11.2742 194.971C11.2742 195.329 11.1682 195.678 10.9698 195.975C10.7713 196.272 10.4893 196.503 10.1593 196.64C9.82929 196.777 9.46615 196.812 9.11582 196.743C8.76549 196.673 8.4437 196.501 8.19112 196.248C7.93855 195.996 7.76654 195.674 7.69686 195.324C7.62717 194.973 7.66295 194.61 7.79964 194.28C7.93634 193.95 8.16781 193.668 8.46481 193.47C8.7618 193.271 9.11098 193.165 9.46817 193.165C9.94715 193.165 10.4065 193.356 10.7452 193.694C11.0839 194.033 11.2742 194.492 11.2742 194.971Z" fill="#DBDBDB"/>
<path d="M9.49829 193.882C9.49829 194.141 9.49829 194.351 9.42605 194.351C9.35381 194.351 9.35982 194.141 9.35982 193.882C9.35982 193.623 9.35983 193.412 9.42605 193.412C9.49227 193.412 9.49829 193.623 9.49829 193.882Z" fill="#263238"/>
<path d="M8.72752 194.177C8.91414 194.357 9.04056 194.526 9.01046 194.556C8.98036 194.586 8.8118 194.454 8.6312 194.273C8.4506 194.093 8.32418 193.918 8.34826 193.894C8.37234 193.87 8.54692 193.99 8.72752 194.177Z" fill="#263238"/>
<path d="M8.38444 194.935C8.6433 194.935 8.854 194.965 8.854 195.002C8.854 195.038 8.6433 195.074 8.38444 195.074C8.12558 195.074 7.91489 195.074 7.91489 195.002C7.91489 194.929 8.12558 194.935 8.38444 194.935Z" fill="#263238"/>
<path d="M8.67947 195.736C8.86007 195.549 9.02861 195.423 9.05871 195.453C9.08881 195.483 8.95637 195.652 8.77577 195.832C8.59517 196.013 8.42061 196.139 8.39653 196.115C8.37245 196.091 8.49285 195.899 8.67947 195.736Z" fill="#263238"/>
<path d="M9.50418 196.531C9.46428 196.531 9.43194 196.32 9.43194 196.061C9.43194 195.802 9.46428 195.592 9.50418 195.592C9.54408 195.592 9.57642 195.802 9.57642 196.061C9.57642 196.32 9.54408 196.531 9.50418 196.531Z" fill="#263238"/>
<path d="M10.2206 195.766C10.034 195.586 9.90756 195.417 9.93766 195.387C9.96776 195.357 10.1363 195.483 10.3169 195.67C10.4975 195.856 10.6239 196.019 10.5998 196.049C10.5758 196.079 10.4012 195.953 10.2206 195.766Z" fill="#263238"/>
<path d="M10.5636 195.008C10.3043 195.008 10.0941 194.975 10.0941 194.935C10.0941 194.895 10.3043 194.863 10.5636 194.863C10.823 194.863 11.0332 194.895 11.0332 194.935C11.0332 194.975 10.823 195.008 10.5636 195.008Z" fill="#263238"/>
<path d="M10.2687 194.225C10.0881 194.412 9.91953 194.532 9.88943 194.508C9.85933 194.484 9.99177 194.309 10.1724 194.129C10.353 193.948 10.5276 193.822 10.5516 193.846C10.5757 193.87 10.4553 194.044 10.2687 194.225Z" fill="#263238"/>
<path d="M134.305 176.243C132.908 177.056 89.9615 186.032 88.1073 185.339C87.403 185.081 85.7294 178.904 83.9234 171.379C83.5321 169.754 83.1348 168.074 82.7495 166.37C80.2031 155.282 77.7589 143.458 77.7589 143.458L106.468 137.342L110.682 160.423L111.603 165.486C111.603 165.486 129.585 169.405 131.536 170.386C133.486 171.367 135.701 175.425 134.305 176.243Z" fill="#F7A9A0"/>
<path d="M84.6216 174.251C86.1507 180.421 87.4932 185.087 88.1072 185.345C89.9614 186.038 132.908 177.05 134.305 176.237C135.701 175.425 133.468 171.391 131.529 170.404C130.325 169.802 123.017 168.08 117.599 166.852C122.331 167.984 131.168 171.192 112.898 172.511C97.7934 173.613 87.8243 174.112 84.6216 174.251Z" fill="#263238"/>
<path d="M95.542 198.204C93.9888 198.638 50.1693 196.398 48.5559 195.23C47.9539 194.803 48.9713 185.189 49.4288 183.497C50.982 177.766 59.0608 152.524 59.0608 152.524L88.3601 153.957L76.3201 182.047C76.3201 182.047 92.7066 190.414 94.344 191.859C95.9815 193.304 97.1012 197.771 95.542 198.204Z" fill="#F7A9A0"/>
<path d="M48.556 195.23C50.1694 196.374 93.9829 198.638 95.5481 198.21C97.1133 197.783 95.9755 193.298 94.3441 191.859C93.5796 191.185 89.6184 189.018 85.6031 186.887C90.6418 189.722 98.6183 196.049 49.0135 184.774C48.562 189.788 48.2249 195.002 48.556 195.23Z" fill="#263238"/>
<path d="M27.5583 111.546C36.2873 121.275 65.6287 113.587 67.3866 117.464C68.9337 120.877 48.9052 175.707 48.9052 175.707L80.9496 179.163C80.9496 179.163 108.642 118.608 98.7207 101.108C93.3809 91.6622 69.8247 95.4247 55.6476 93.697C51.3674 93.1793 49.3507 84.3419 49.3507 84.3419H23.9763C23.9763 84.3419 17.5891 100.427 27.5583 111.546Z" fill="#455A64"/>
<path d="M89.8291 95.6896L62.9197 116.278C53.986 116.091 34.427 119.186 27.5703 111.546C17.5831 100.421 23.9884 84.3419 23.9884 84.3419H49.3627C49.3627 84.3419 51.3794 93.1793 55.6596 93.697C65.6287 94.907 80.179 93.396 89.8291 95.6896Z" fill="#263238"/>
<path d="M82.1837 172.011C81.2988 171.734 72.9912 170.807 71.1611 170.609C67.4949 170.217 55.9425 169.134 53.8536 169.14C53.843 169.143 53.8338 169.15 53.8272 169.159C53.8207 169.169 53.8172 169.18 53.8172 169.191C53.8172 169.202 53.8207 169.213 53.8272 169.222C53.8338 169.231 53.843 169.238 53.8536 169.242C55.6596 169.621 63.0401 170.482 64.8762 170.669C68.5484 171.048 81.1302 172.27 82.1837 172.168C82.2045 172.168 82.2244 172.159 82.239 172.145C82.2537 172.13 82.262 172.11 82.262 172.089C82.262 172.069 82.2537 172.049 82.239 172.034C82.2244 172.019 82.2045 172.011 82.1837 172.011Z" fill="#263238"/>
<path d="M71.2874 114.249C69.2225 113.226 53.6066 113.732 42.3914 112.684C38.7372 112.341 35.077 111.564 32.2898 109.168C29.8588 106.978 28.1237 104.123 27.2992 100.957C26.2216 97.1284 26.336 93.1311 26.5166 89.2121C26.5648 88.2429 26.631 87.2797 26.6912 86.3165C26.6912 86.2623 26.5949 86.2503 26.5889 86.3165C25.734 93.3418 25.0838 101.192 29.653 107.278C31.6823 109.947 34.566 111.838 37.8222 112.636C44.5826 114.442 69.993 113.972 70.89 114.659C71.9556 115.477 55.527 165.492 55.2019 166.431C55.1417 166.611 55.4547 166.732 55.527 166.551C57.1644 162.716 73.0753 115.14 71.2874 114.249Z" fill="#263238"/>
<path d="M99.8826 102.799C98.3715 98.9645 94.9281 96.5806 89.8592 95.6655C89.775 95.6655 89.781 95.7739 89.8592 95.798C94.2839 97.0923 97.4445 98.8742 99.1842 102.607C99.9969 104.346 100.388 106.821 100.629 110.083C101.683 126.458 87.385 163.625 87.1021 164.263C87.0957 164.275 87.094 164.288 87.0974 164.3C87.1008 164.313 87.109 164.323 87.1201 164.33C87.1313 164.336 87.1446 164.338 87.157 164.334C87.1694 164.331 87.18 164.323 87.1864 164.312C89.2031 160.928 106.119 118.632 99.8826 102.799Z" fill="#263238"/>
<path d="M113.704 157.997L87.2163 164.137C87.2163 164.137 106.36 107.007 97.3661 99.6388C94.8798 97.598 89.4437 96.8816 82.9843 99.6689C73.3523 103.835 62.1912 112.311 51.6803 115.429C41.8316 118.337 30.1347 115.664 26.1073 111.215C17.6793 101.908 24.0124 84.3179 24.0124 84.3179L58.9284 83.0055C58.9284 83.0055 58.4106 83.4329 60.0722 84.9078C60.0722 84.9078 80.5823 80.2604 89.4979 85.7025C105.523 95.5391 113.704 157.997 113.704 157.997Z" fill="#455A64"/>
<path d="M39.0625 86.3767C39.0625 86.3607 39.0561 86.3454 39.0448 86.3341C39.0336 86.3228 39.0182 86.3165 39.0023 86.3165C38.9863 86.3165 38.971 86.3228 38.9597 86.3341C38.9484 86.3454 38.9421 86.3607 38.9421 86.3767C38.9746 87.6878 38.8737 88.9989 38.6411 90.2897C38.3672 91.5151 37.7587 92.6404 36.8832 93.5405C34.9749 95.4729 32.2298 96.1351 29.7194 96.9237C29.587 96.9658 29.6111 97.2006 29.7616 97.1766C32.5428 96.7491 35.4685 96.0448 37.5033 93.9558C38.4394 92.9929 39.068 91.7733 39.3093 90.4522C39.5656 89.0942 39.4807 87.6938 39.0625 86.3767Z" fill="#263238"/>
<path d="M96.7522 98.5491C93.0258 96.2074 87.1924 97.9833 84.3992 99.0548C84.345 99.0548 84.3691 99.1692 84.4293 99.1511C86.9998 98.2241 93.387 96.8274 96.8064 99.2475C104.699 104.84 94.1335 143.085 87.2045 164.137C87.0961 164.468 87.361 164.378 87.5055 164.065C88.6493 161.567 97.5769 134.97 99.9067 117.374C100.268 114.665 102.134 101.92 96.7522 98.5491Z" fill="#263238"/>
<path d="M108.702 152.524C107.967 152.524 101.682 153.897 100.274 154.204C97.4984 154.806 91.0811 156.492 89.5821 157.063C89.5399 157.063 89.5821 157.16 89.6122 157.16C91.051 157.021 94.3981 156.287 95.7767 155.956C98.5459 155.312 108.027 153.036 108.726 152.663C108.828 152.645 108.774 152.53 108.702 152.524Z" fill="#263238"/>
<path d="M95.5842 97.5558C93.0739 96.1833 90.088 95.9605 87.3007 96.3037C84.3597 96.745 81.5046 97.6385 78.8366 98.9525C73.1597 101.547 67.7538 104.714 62.0709 107.296C56.388 109.879 50.3921 111.871 44.1614 112.064C38.8397 112.227 32.1214 111.287 28.6779 106.502C23.4044 99.127 26.4807 86.4068 26.5409 85.582C26.5409 85.5158 26.4566 85.5218 26.4445 85.582C22.3509 101.234 27.6124 107.29 31.1702 109.843C33.9876 111.871 38.039 112.383 40.7179 112.606C46.9125 113.13 53.1252 111.613 58.8622 109.331C64.7498 106.983 70.2701 103.829 75.9049 100.945C81.3228 98.1819 87.3428 95.3284 93.5073 96.9117C94.2074 97.0975 94.8934 97.3329 95.5601 97.616C95.5842 97.61 95.5842 97.5739 95.5842 97.5558Z" fill="#263238"/>
<path d="M78.0117 32.6783C77.6264 31.6669 75.2847 23.6483 72.088 20.1326C70.3904 18.2664 65.147 13.6551 63.8828 14.546C62.7269 15.3587 63.8828 16.954 63.8828 16.954C63.8828 16.954 61.5169 14.9313 59.9216 16.0811C58.3263 17.231 60.3671 19.8557 60.3671 19.8557C60.3671 19.8557 57.7845 17.9594 56.2795 19.2176C54.7745 20.4757 57.2668 22.7754 57.2668 22.7754C57.2668 22.7754 54.9852 20.9272 54.1785 22.4864C53.2093 24.3647 57.7905 27.3024 59.2835 29.6623C59.6206 30.198 65.3336 41.0461 65.3336 41.0461L78.0117 32.6783Z" fill="#F7A9A0"/>
<path d="M57.2128 22.9018C60.578 25.069 61.6796 26.592 63.3472 30.1679C63.3773 30.2341 63.4917 30.204 63.4616 30.1258C62.1492 26.4837 61.0536 24.3646 57.3091 22.7332C57.1225 22.655 57.0563 22.7994 57.2128 22.9018Z" fill="#263238"/>
<path d="M60.2948 19.9821C63.5998 22.5346 64.8098 24.1961 66.8265 27.8081C66.8265 27.8563 66.9469 27.8081 66.9228 27.7599C65.2372 24.0516 64.0874 21.9627 60.4513 19.8497C60.2888 19.7413 60.1443 19.8677 60.2948 19.9821Z" fill="#263238"/>
<path d="M63.9432 17.1527C66.9532 19.8497 68.3679 21.6015 69.8789 25.358C69.8882 25.3729 69.9022 25.3843 69.9188 25.3903C69.9353 25.3963 69.9535 25.3966 69.9702 25.391C69.9869 25.3854 70.0012 25.3744 70.0109 25.3596C70.0205 25.3449 70.0249 25.3273 70.0234 25.3098C68.8194 21.3306 67.1157 19.1333 64.0395 17.0684C63.8288 16.942 63.7565 16.9781 63.9432 17.1527Z" fill="#263238"/>
<path d="M66.6881 43.7551C66.6881 43.7551 62.143 41.636 60.3491 40.2635C58.5551 38.8909 53.7632 31.3238 55.3404 30.192C57.3752 28.7352 60.9992 32.5579 62.5343 34.6649C62.5343 34.6649 67.2359 31.2877 70.4386 33.4609C73.6412 35.6341 66.6881 43.7551 66.6881 43.7551Z" fill="#F7A9A0"/>
<path d="M56.057 29.9753C58.8743 29.9753 60.7044 32.8769 62.3479 34.7913C62.3688 34.8223 62.3971 34.8478 62.4301 34.8653C62.4632 34.8829 62.5001 34.8921 62.5375 34.8921C62.575 34.8921 62.6118 34.8829 62.6449 34.8653C62.678 34.8478 62.7062 34.8223 62.7271 34.7913C64.792 33.509 68.0789 32.299 70.4388 33.3164C70.4516 33.3191 70.4649 33.3176 70.4768 33.3121C70.4886 33.3065 70.4984 33.2973 70.5045 33.2857C70.5106 33.2741 70.5128 33.2609 70.5107 33.2479C70.5086 33.235 70.5024 33.2231 70.4929 33.2141C68.115 31.7813 64.786 32.7024 62.6128 34.2555C60.9633 32.2448 59.0008 29.4395 56.057 29.9512V29.9753Z" fill="#263238"/>
<path d="M62.4741 1.29C49.7177 -2.49658 43.4088 14.9735 37.2322 23.7265C31.5494 31.7813 19.094 40.4682 22.2244 47.4213C26.7936 57.5589 48.9291 52.8393 62.9015 34.8997C72.9248 21.9928 71.4198 3.91472 62.4741 1.29Z" fill="#EC8A98"/>
<path opacity="0.4" d="M62.4741 1.29C49.7177 -2.49658 43.4088 14.9735 37.2322 23.7265C31.5494 31.7813 19.094 40.4682 22.2244 47.4213C26.7936 57.5589 48.9291 52.8393 62.9015 34.8997C72.9248 21.9928 71.4198 3.91472 62.4741 1.29Z" fill="white"/>
<path d="M51.6383 45.1638C51.6701 45.4113 51.6514 45.6628 51.5831 45.9029C51.5148 46.143 51.3984 46.3667 51.241 46.5604C51.1266 46.6688 50.9942 46.7591 50.8858 46.8734C50.7327 47.0543 50.6364 47.2762 50.6089 47.5116C50.5689 47.7739 50.5044 48.0319 50.4162 48.2821C50.3094 48.6809 50.0883 49.0397 49.7803 49.3145C49.4723 49.5894 49.0908 49.7683 48.6825 49.8293C48.7204 50.4276 48.5524 51.0209 48.2063 51.5105C47.8602 52.0001 47.3569 52.3564 46.7802 52.5202C46.6272 52.5643 46.4696 52.5905 46.3106 52.5985C46.0766 52.568 45.8388 52.5864 45.6123 52.6527C45.4136 52.755 45.2691 53.0078 45.1186 53.1704C44.9972 53.3139 44.8599 53.4431 44.7093 53.5557C44.5148 53.7131 44.2692 53.7933 44.0194 53.7811C43.7695 53.7689 43.5329 53.6651 43.3548 53.4894C43.1687 53.7591 42.9074 53.9681 42.6033 54.0901C42.2993 54.2122 41.966 54.2419 41.6451 54.1757C41.231 54.1197 40.8337 53.9751 40.4805 53.7518C40.1273 53.5284 39.8264 53.2316 39.5983 52.8814C39.1362 53.1255 38.5966 53.1778 38.0963 53.0268C37.5959 52.8758 37.1753 52.5337 36.9254 52.0747C36.6867 52.1538 36.4339 52.181 36.1838 52.1547C35.9337 52.1283 35.6921 52.049 35.4751 51.922C35.2581 51.795 35.0706 51.6232 34.9252 51.418C34.7798 51.2129 34.6798 50.9791 34.6318 50.7323C34.2056 50.687 33.7972 50.5368 33.4432 50.2952C33.0892 50.0536 32.8005 49.7281 32.6031 49.3477C32.5263 49.1956 32.415 49.0636 32.278 48.9624C31.9865 48.958 31.6996 48.8887 31.4383 48.7596C31.1769 48.6305 30.9476 48.4447 30.7669 48.2159C30.5793 47.9649 30.4755 47.6612 30.4701 47.3479C30.4647 47.0345 30.558 46.7274 30.7369 46.4701C30.3892 46.137 30.1287 45.7235 29.9783 45.2661C29.8545 44.9388 29.8188 44.5847 29.8748 44.2392C29.9308 43.8937 30.0765 43.569 30.2974 43.2976C30.0367 42.991 29.8441 42.6325 29.7323 42.2459C29.6205 41.8593 29.5922 41.4534 29.6491 41.0549C29.706 40.6565 29.8469 40.2748 30.0624 39.9349C30.278 39.5951 30.5633 39.3049 30.8994 39.0836C30.625 38.7889 30.4433 38.4201 30.377 38.023C30.3106 37.6259 30.3625 37.218 30.5262 36.8502C30.9648 35.9879 31.7034 35.3156 32.6031 34.9599C32.4091 34.6796 32.3219 34.3391 32.3573 34.0001C32.3926 33.6611 32.5481 33.346 32.7957 33.1117C32.9939 32.9369 33.2327 32.8145 33.4903 32.7556C33.7479 32.6967 34.0161 32.7033 34.2706 32.7746C34.5021 32.2403 34.9346 31.8186 35.4746 31.6007C35.7153 31.5228 35.9733 31.5148 36.2184 31.5776C36.4635 31.6405 36.6857 31.7717 36.8592 31.9559C37.038 31.6727 37.2863 31.44 37.5805 31.2799C37.8747 31.1198 38.2049 31.0376 38.5398 31.0413C38.8747 31.0449 39.2031 31.1341 39.4938 31.3006C39.7844 31.467 40.0277 31.705 40.2003 31.992C40.3611 31.5646 40.6434 31.1935 41.0124 30.9244C41.3815 30.6554 41.8211 30.5001 42.2773 30.4777C42.7334 30.4553 43.1861 30.5668 43.5797 30.7984C43.9734 31.03 44.2906 31.3717 44.4926 31.7813C44.7783 31.4915 45.1418 31.2907 45.5392 31.2031C45.9367 31.1155 46.3509 31.1449 46.732 31.2877C47.172 31.479 47.5616 31.77 47.8698 32.1378C48.178 32.5056 48.3964 32.94 48.5079 33.4067C48.9031 33.2934 49.323 33.2992 49.7149 33.4234C50.1069 33.5476 50.4534 33.7847 50.7112 34.105C50.9358 34.3991 51.0968 34.7367 51.1838 35.0963C51.2709 35.4559 51.2821 35.8297 51.2169 36.194C51.4244 35.8633 51.5288 35.4784 51.517 35.0883C51.5053 34.6981 51.3777 34.3202 51.1507 34.0027C50.8415 33.6204 50.4129 33.3532 49.9335 33.2441C49.4542 33.1349 48.9521 33.19 48.5079 33.4007C48.9587 33.13 49.4934 33.0349 50.0099 33.1338C50.5263 33.2326 50.9882 33.5184 51.3072 33.9365C51.59 34.3442 51.7298 34.8341 51.7047 35.3296C51.6797 35.8252 51.4912 36.2985 51.1687 36.6756C51.6335 36.6917 52.0839 36.8401 52.4673 37.1033C52.8506 37.3665 53.1509 37.7336 53.3329 38.1614C53.515 38.5893 53.5712 39.0603 53.4949 39.519C53.4187 39.9777 53.2132 40.4051 52.9025 40.7511C54.4075 42.1779 53.9379 44.9471 51.6383 45.1638ZM32.0372 48.8059L31.977 48.7758C31.8151 48.696 31.6635 48.5969 31.5255 48.4808C31.2981 48.2846 31.1174 48.0401 30.9966 47.7651C30.8757 47.4902 30.8179 47.1917 30.8272 46.8915C30.8272 46.7831 30.8633 46.5724 30.8633 46.5724L30.7971 46.5183C30.6564 46.8148 30.6109 47.1476 30.667 47.4709C30.723 47.7943 30.8778 48.0924 31.1101 48.3243C31.3714 48.5702 31.697 48.7371 32.0492 48.8059H32.0372ZM34.1803 32.9612C33.9597 32.889 33.7241 32.876 33.4969 32.9236C33.2698 32.9711 33.0591 33.0775 32.886 33.2321C32.6569 33.4479 32.5109 33.7373 32.4734 34.0498C32.436 34.3623 32.5096 34.678 32.6813 34.9418H32.7295C32.6482 34.6401 32.6625 34.3207 32.7703 34.0274C32.8781 33.7342 33.0742 33.4816 33.3315 33.3044C33.5767 33.1127 33.8708 32.9939 34.1803 32.9612ZM53.2818 41.5879C53.5134 42.2621 53.4724 43 53.1677 43.6445C52.8629 44.2889 52.3184 44.7887 51.6503 45.0373C53.5767 44.634 53.8898 43.0447 53.2757 41.5879H53.2818Z" fill="#263238"/>
<path d="M52.3003 43.1711C58.4227 43.737 79.5107 48.1015 81.5997 49.6607C84.092 51.5149 83.9294 63.4345 81.5997 64.5421C75.5797 67.3956 55.0515 55.3135 47.0148 48.9744C43.0897 45.8741 42.0483 42.226 52.3003 43.1711Z" fill="#F7A9A0"/>
<path opacity="0.1" d="M56.6228 55.5001C53.3003 53.5098 50.0944 51.331 47.0209 48.9744C43.0898 45.8741 42.0484 42.22 52.3004 43.1712H52.3607L56.6228 55.5001Z" fill="#020100"/>
<path d="M60.4875 85.7385L57.8989 70.52C57.8989 70.52 61.7156 66.3722 59.5966 61.207C58.525 58.5883 52.1619 47.0841 47.9298 43.7189C43.9566 40.5584 38.7132 43.1952 36.6845 45.6995C30.8631 52.9235 26.3963 67.7087 23.1094 84.0891L60.4875 85.7385Z" fill="#EC8A98"/>
<path d="M51.6381 68.3227C49.7506 68.4243 47.8733 68.6657 46.0215 69.0451C45.1065 69.2498 44.2155 69.4906 43.3004 69.7494C42.855 69.8819 42.4035 69.9962 41.9459 70.1106C41.4749 70.2419 40.9899 70.3166 40.5011 70.3334C40.459 70.3334 40.459 70.3936 40.5011 70.3996C40.9622 70.4297 41.4247 70.4297 41.8857 70.3996C42.3329 70.3583 42.7772 70.29 43.2162 70.1949C44.1493 70.0023 45.0703 69.7615 45.9974 69.5568C47.8756 69.1414 49.7539 68.732 51.6562 68.4551C51.7646 68.4672 51.7465 68.3167 51.6381 68.3227Z" fill="#263238"/>
<path d="M56.2495 70.1528C54.7072 69.9343 53.1534 69.8056 51.5961 69.7675C50.8135 69.7675 50.0369 69.7675 49.2603 69.8217L48.1466 69.906C47.7373 69.9481 47.3339 70.0384 46.9426 70.0685C46.9005 70.0685 46.8945 70.1407 46.9426 70.1347C47.3279 70.1347 47.7192 70.1648 48.1045 70.1708H49.2302L51.56 70.2009C53.1191 70.2009 54.6663 70.2009 56.2194 70.2732C56.3278 70.2852 56.3278 70.1648 56.2495 70.1528Z" fill="#263238"/>
<path d="M41.4583 43.7551C41.6269 44.4594 46.6355 49.9918 49.6816 48.7938C50.8134 48.3544 49.1699 43.7792 49.1699 43.7792L50.5786 37.41L42.6081 32.4014C42.6081 32.4014 41.4041 43.43 41.4583 43.7551Z" fill="#F7A9A0"/>
<path d="M42.1687 36.5311C42.79 38.0765 43.7686 39.4529 45.0242 40.5474C46.2798 41.6419 47.7769 42.4234 49.3927 42.828L50.5967 37.41L42.6081 32.4014L42.1687 36.5311Z" fill="#263238"/>
<path d="M56.4541 25.4964C60.1805 35.4655 54.6482 38.8247 52.4749 39.6254C50.5245 40.3538 43.782 42.5812 39.0443 33.0455C34.3066 23.5098 37.7681 18.6276 42.1446 16.7313C46.5212 14.835 52.7458 15.5273 56.4541 25.4964Z" fill="#F7A9A0"/>
<path d="M53.0347 23.865C52.796 23.9153 52.5549 23.9535 52.3123 23.9794C52.0609 24.0528 51.7925 24.0422 51.5477 23.9493C51.4763 23.9069 51.4213 23.8416 51.3918 23.764C51.3623 23.6863 51.36 23.601 51.3852 23.5219C51.4558 23.3695 51.5665 23.2392 51.7054 23.1448C51.8443 23.0505 52.0062 22.9956 52.1738 22.9861C52.5082 22.9115 52.8584 22.9652 53.1551 23.1366C53.2206 23.1794 53.2723 23.2403 53.3038 23.3119C53.3353 23.3836 53.3453 23.4629 53.3325 23.5401C53.3197 23.6173 53.2848 23.6891 53.2319 23.7468C53.179 23.8045 53.1105 23.8456 53.0347 23.865Z" fill="#263238"/>
<path d="M46.3224 26.5138C46.5309 26.3937 46.732 26.261 46.9244 26.1165C47.1652 25.96 47.3639 25.8636 47.4843 25.5927C47.5083 25.512 47.5047 25.4256 47.4742 25.3471C47.4437 25.2687 47.3879 25.2026 47.3157 25.1593C47.1616 25.0939 46.9929 25.0705 46.8269 25.0917C46.6608 25.1128 46.5033 25.1777 46.3706 25.2797C46.0844 25.4537 45.8706 25.7252 45.7686 26.0442C45.7496 26.1176 45.7517 26.1949 45.7747 26.2671C45.7976 26.3393 45.8405 26.4036 45.8983 26.4526C45.9561 26.5016 46.0265 26.5334 46.1015 26.5442C46.1766 26.555 46.2531 26.5445 46.3224 26.5138Z" fill="#263238"/>
<path d="M48.6944 28.4884C48.6944 28.4884 48.6583 28.5425 48.6944 28.5666C48.9894 29.2348 49.2121 30.0415 48.6944 30.5111C48.6944 30.5111 48.6944 30.5592 48.6944 30.5472C49.3927 30.1439 49.0797 29.0723 48.6944 28.4884Z" fill="#263238"/>
<path d="M47.8155 28.0308C46.7018 28.386 47.4964 30.5893 48.5259 30.2582C49.5553 29.9271 48.7486 27.7298 47.8155 28.0308Z" fill="#263238"/>
<path d="M47.4243 28.3017C47.2738 28.4944 47.1654 28.7833 46.9427 28.9037C46.7199 29.0241 46.4009 28.8676 46.142 28.7111C46.142 28.7111 46.1059 28.7111 46.1119 28.7532C46.2624 29.1746 46.5815 29.5479 47.0571 29.4455C47.5326 29.3432 47.659 28.8736 47.5988 28.4161C47.5928 28.3138 47.4845 28.2235 47.4243 28.3017Z" fill="#263238"/>
<path d="M52.6675 26.8449C52.6675 26.8449 52.7277 26.8449 52.7398 26.887C52.9565 27.5793 53.3418 28.3318 54.022 28.3439C54.022 28.3439 54.0582 28.374 54.022 28.38C53.2394 28.5425 52.7639 27.5312 52.6675 26.8449Z" fill="#263238"/>
<path d="M53.0228 25.9118C54.0944 25.4422 54.9552 27.6215 53.968 28.0549C52.9807 28.4884 52.1258 26.3091 53.0228 25.9118Z" fill="#263238"/>
<path d="M53.5345 25.8757C53.7512 25.9238 54.004 26.0683 54.2147 25.9961C54.4254 25.9238 54.5458 25.6168 54.606 25.3279C54.606 25.2978 54.6361 25.3279 54.6482 25.3279C54.8227 25.7372 54.8589 26.2249 54.4916 26.4657C54.1244 26.7065 53.7452 26.4295 53.4863 26.0563C53.4442 25.972 53.4442 25.8576 53.5345 25.8757Z" fill="#263238"/>
<path d="M52.9566 30.5592C52.9566 30.5592 53.4321 31.5465 53.5886 32.0341C53.5886 32.0763 53.4923 32.1365 53.3298 32.1967C52.9372 32.4086 52.4935 32.5073 52.0481 32.4818C51.6028 32.4563 51.1732 32.3076 50.8074 32.0522C50.7998 32.0439 50.7949 32.0335 50.7935 32.0224C50.792 32.0112 50.7941 31.9999 50.7994 31.9899C50.8047 31.98 50.8129 31.972 50.823 31.967C50.8331 31.9619 50.8445 31.9602 50.8556 31.9619C51.612 32.1857 52.4203 32.1604 53.1612 31.8897C53.1612 31.7452 52.2943 30.2281 52.3666 30.198C52.7614 30.1088 53.1662 30.0724 53.5706 30.0897C52.6435 28.0128 51.3853 26.0984 50.4944 24.0155C50.4848 24.0003 50.4816 23.982 50.4856 23.9645C50.4895 23.947 50.5003 23.9318 50.5155 23.9222C50.5306 23.9126 50.549 23.9095 50.5665 23.9134C50.584 23.9174 50.5992 23.9281 50.6088 23.9433C52.0234 25.9526 53.2334 28.0983 54.2208 30.3485C54.293 30.6255 53.1793 30.5833 52.9566 30.5592Z" fill="#263238"/>
<path d="M53.125 31.992C52.9993 32.4651 52.7548 32.8982 52.4146 33.2502C52.2236 33.436 51.9796 33.558 51.7163 33.5993C51.1143 33.6836 50.9217 33.2141 50.8434 32.7686C50.8036 32.5299 50.7935 32.2873 50.8133 32.0462C51.5701 32.2737 52.3797 32.2547 53.125 31.992Z" fill="#263238"/>
<path d="M52.4148 33.2562C52.2237 33.442 51.9798 33.564 51.7165 33.6054C51.1145 33.6896 50.9218 33.2201 50.8436 32.7746C51.1216 32.6673 51.4275 32.6565 51.7124 32.7438C51.9973 32.8311 52.2447 33.0116 52.4148 33.2562Z" fill="#FF9ABB"/>
<path d="M46.9002 17.4597C47.3942 18.2696 47.6333 19.2092 47.5865 20.1567C47.1952 22.7814 44.2575 23.0162 43.5953 24.2081C42.9331 25.4001 43.818 26.9954 43.2762 28.091C42.5357 29.6021 40.8682 29.6021 40.9525 30.4509C41.0368 31.2997 41.2535 33.9846 40.3505 34.6107C39.4475 35.2368 29.7071 19.8557 43.0173 16.3821C43.0173 16.3821 44.6006 15.0938 47.8333 15.6597C51.4032 16.2617 54.2988 20.9754 54.2988 20.9754C54.2988 20.9754 54.2145 20.9272 53.6426 20.6684C52.836 20.2951 52.4386 19.8497 51.8366 19.6269C50.9336 19.2778 50.5965 19.6269 49.6694 19.2898C48.6412 18.8561 47.7023 18.2356 46.9002 17.4597Z" fill="#263238"/>
<path d="M46.4789 16.7915C46.8848 17.3847 47.2201 18.0231 47.4783 18.6938C47.7692 19.3343 47.8795 20.042 47.7973 20.7406C47.6253 21.4078 47.2166 21.9897 46.6475 22.3781C46.0937 22.7995 45.4435 23.0764 44.8415 23.552C44.5352 23.795 44.3019 24.1179 44.1673 24.4851C44.0644 24.8531 44.0377 25.2382 44.089 25.6168C44.2185 26.3042 44.1582 27.014 43.9144 27.6696C43.7667 27.9812 43.5528 28.2567 43.2877 28.4771C43.0226 28.6975 42.7126 28.8575 42.3793 28.9459C41.7171 29.1506 40.9285 29.1867 40.3747 29.6743C40.9767 29.2348 41.7171 29.2649 42.4215 29.1084C42.789 29.0279 43.1343 28.8675 43.4328 28.6386C43.7314 28.4098 43.976 28.118 44.1492 27.784C44.4414 27.0949 44.5271 26.3357 44.396 25.5988C44.3542 25.2598 44.3808 24.9159 44.4743 24.5874C44.5993 24.2779 44.8077 24.0091 45.0763 23.8108C45.6 23.3774 46.2803 23.0824 46.8823 22.6068C47.1827 22.3817 47.4466 22.1116 47.6649 21.8062C47.8957 21.501 48.0468 21.143 48.1044 20.7647C48.1625 20.0207 48.0146 19.2751 47.6769 18.6095C47.3514 17.958 46.9492 17.3476 46.4789 16.7915Z" fill="#263238"/>
<path d="M46.9123 17.3152C47.2397 17.9081 47.6446 18.4547 48.1163 18.9406C48.587 19.4587 49.2009 19.8254 49.8802 19.9941C50.2154 20.0579 50.5566 20.0842 50.8976 20.0724C51.2016 20.0793 51.4977 20.171 51.7524 20.3373C52.0007 20.5668 52.2732 20.7686 52.5651 20.9393C52.87 21.0923 53.2054 21.1746 53.5464 21.1801C53.2266 21.11 52.9224 20.9815 52.6494 20.8008C52.3852 20.6026 52.1412 20.3788 51.921 20.1326C51.6353 19.9055 51.2861 19.773 50.9217 19.7533C50.5965 19.7524 50.2722 19.7222 49.9524 19.663C49.3326 19.5028 48.7645 19.1856 48.303 18.742C47.8092 18.2968 47.3447 17.8202 46.9123 17.3152Z" fill="#263238"/>
<path d="M41.2354 33.0034C41.2354 33.0034 37.9786 30.5954 36.8107 31.8535C35.6428 33.1117 38.8274 37.1331 40.7177 37.1933C40.9593 37.2172 41.2032 37.1922 41.4349 37.1197C41.6666 37.0472 41.8813 36.9288 42.0662 36.7714C42.2511 36.6141 42.4023 36.4211 42.5109 36.2039C42.6195 35.9868 42.6832 35.75 42.6982 35.5077L41.2354 33.0034Z" fill="#F7A9A0"/>
<path d="M37.7499 32.9793V33.0275C39.0863 33.1117 40.0736 33.9967 40.8863 34.984C40.7783 34.8893 40.6511 34.819 40.5134 34.7779C40.3757 34.7368 40.2308 34.7259 40.0885 34.7459C39.9463 34.7659 39.81 34.8163 39.689 34.8938C39.568 34.9712 39.4651 35.0738 39.3873 35.1947C39.3873 35.2308 39.3873 35.2669 39.4415 35.2488C39.6279 35.1164 39.8509 35.0452 40.0796 35.0452C40.3083 35.0452 40.5313 35.1164 40.7177 35.2488C41.0337 35.4645 41.3245 35.7149 41.5846 35.9953C41.6749 36.0856 41.8495 35.9652 41.7652 35.8569C41.2836 34.3037 39.4114 32.594 37.7499 32.9793Z" fill="#263238"/>
<path d="M39.6404 44.5196C41.8497 44.9892 41.8859 52.8634 39.8511 58.4018C38.0451 63.3622 34.4632 66.1013 30.6044 65.6739C22.4352 64.7589 34.5655 43.43 39.6404 44.5196Z" fill="#F7A9A0"/>
<path d="M34.9508 47.2226C22.9951 57.7817 12.0748 71.116 13.3932 76.4678C14.8561 82.4276 29.3282 71.6518 29.9904 71.0136C31.2606 69.7615 34.4331 64.3314 38.9662 53.9289C43.2103 44.2246 38.617 43.9838 34.9508 47.2226Z" fill="#F7A9A0"/>
<path d="M13.7123 77.142C15.9036 80.9587 25.5657 84.968 42.3194 89.784C44.6371 90.4522 47.617 73.4698 45.1789 72.627C42.1026 71.5675 29.9543 68.112 29.0332 67.9735C21.2734 66.7695 12.2254 74.5293 13.7123 77.142Z" fill="#F7A9A0"/>
<path d="M40.6036 71.8986C40.6036 71.8986 41.6812 72.0671 47.5146 72.0069C51.548 71.9648 61.3967 74.4149 65.6348 84.962C67.2542 88.9894 65.1412 91.891 62.7091 88.0021C60.9994 85.269 60.0482 83.2222 59.2416 82.4878C59.2416 82.4878 58.6817 87.3941 56.1713 88.7787C53.981 89.9898 51.7054 91.04 49.3627 91.9211C49.1038 91.5355 48.8705 91.1333 48.6644 90.7171C47.6263 91.1754 46.4799 91.3309 45.3573 91.1658C44.2346 91.0007 43.1815 90.5217 42.3193 89.784L40.6036 71.8986Z" fill="#F7A9A0"/>
<path d="M51.3672 72.5848C52.9746 73.9574 56.3338 76.9313 58.2301 80.3145C60.3431 84.071 63.3952 91.8789 60.6019 93.408C58.5551 94.5338 57.1284 91.6502 57.1284 91.6502C57.1284 91.6502 57.7304 95.1478 55.6415 95.7558C53.7512 96.3097 52.782 94.016 52.782 94.016C52.782 94.016 52.782 96.1953 50.8495 96.3819C48.5439 96.6046 48.9472 91.9993 46.4128 90.1994C45.8469 89.784 51.3672 72.5848 51.3672 72.5848Z" fill="#F7A9A0"/>
<path d="M53.8896 81.8797C55.9451 84.708 57.0915 88.0947 57.1765 91.59C57.1765 91.6743 57.1103 91.7224 57.0922 91.6442C56.4113 88.2801 55.3237 85.0113 53.8535 81.9098C53.8535 81.9098 53.8715 81.8617 53.8896 81.8797Z" fill="#263238"/>
<path d="M50.1572 84.1192C51.1385 85.564 53.0589 90.0429 52.8602 93.998C52.8602 94.0823 52.782 94.1244 52.7699 94.0462C52.2656 90.6534 51.3769 87.3291 50.1211 84.1373C50.1211 84.1373 50.1452 84.1011 50.1572 84.1192Z" fill="#263238"/>
<path d="M21.6647 68.9969C23.6644 68.1908 25.806 67.7956 27.9617 67.8351C30.5744 67.9495 34.7281 69.2257 36.3535 69.8819C36.3897 69.8819 36.3836 69.9481 36.3535 69.9421C34.7944 69.6652 30.8693 68.5394 28.0881 68.3889C25.9382 68.3 23.7868 68.523 21.7009 69.0511C21.6467 69.0632 21.6286 69.009 21.6647 68.9969Z" fill="#263238"/>
<path d="M33.2893 65.8605C35.4264 62.5014 37.4251 58.9255 38.4124 55.0245C36.8953 58.5824 34.8365 62.3027 33.2893 65.8605Z" fill="#263238"/>
<path d="M38.8818 56.5837C38.1775 57.4205 37.6778 58.3476 36.7989 59.0338C37.8825 58.7268 38.5628 57.6011 38.8818 56.5837Z" fill="#263238"/>
<path d="M36.2934 26.574C36.2934 26.574 32.4285 15.7922 44.7876 15.136L36.2934 26.574Z" fill="#EC8A98"/>
<path opacity="0.1" d="M36.2934 26.574C36.2934 26.574 32.4285 15.7922 44.7876 15.136L36.2934 26.574Z" fill="black"/>
<path d="M23.3803 39.8662C28.6839 32.895 40.2965 27.1519 42.849 22.3058C47.665 13.1133 47.2737 9.97686 48.9532 7.31602C51.5599 3.20436 53.4502 2.24116 53.3719 2.2833C46.6536 5.805 41.3861 17.5922 37.2865 23.3954C33.6384 28.5726 26.7154 33.3886 23.3803 39.8662Z" fill="#EC8A98"/>
<path d="M63.3833 41.7083C62.709 39.6916 76.6273 29.879 78.0119 32.6783C83.1108 42.9905 86.187 57.9623 85.4104 60.7315C85.1421 61.5947 84.674 62.3824 84.0442 63.0308C83.4143 63.6791 82.6405 64.1699 81.7854 64.4631C80.9304 64.7563 80.0183 64.8438 79.1231 64.7184C78.2279 64.593 77.3749 64.2583 76.6333 63.7415C71.8113 60.5148 65.4541 47.8607 63.3833 41.7083Z" fill="#F7A9A0"/>
<path d="M72.293 58.7991C67.9707 53.9831 64.8583 45.4226 64.8463 45.4106C64.8343 45.3985 64.9065 45.1878 64.9426 45.242C65.6229 46.3136 69.6382 54.874 72.4134 58.6726C72.4375 58.7088 72.3231 58.8352 72.293 58.7991Z" fill="#263238"/>
</svg>
